<?xml version="1.0" encoding="utf-8"?>
<!-- Generator: Adobe Illustrator 27.3.1, SVG Export Plug-In . SVG Version: 6.00 Build 0)  -->
<svg version="1.1" id="Layer_1" xmlns="http://www.w3.org/2000/svg" xmlns:xlink="http://www.w3.org/1999/xlink" x="0px" y="0px"
	 viewBox="0 0 176.9 40" style="enable-background:new 0 0 176.9 40;" xml:space="preserve">
<style type="text/css">
	.st0{fill:#E81A3B;}
	.st1{fill:#22409A;}
</style>
<g>
	<path class="st0" d="M121.6,20c0-0.6,0.1-1.2,0.3-1.8s0.6-1.1,1-1.5c0.4-0.4,1-0.8,1.5-1c0.6-0.2,1.2-0.3,1.8-0.3
		c0.7,0,1.5,0.2,2.1,0.5c0.7,0.4,1.2,0.9,1.6,1.5l-1.3,0.7c-0.2-0.4-0.6-0.7-1-1c-0.4-0.2-0.9-0.4-1.3-0.3c-0.8,0-1.6,0.4-2.2,1
		c-0.6,0.6-0.9,1.4-0.8,2.2c0,0.4,0.1,0.8,0.2,1.2c0.1,0.4,0.4,0.7,0.7,1c0.3,0.3,0.6,0.5,1,0.7c0.4,0.2,0.8,0.3,1.2,0.3
		c0.5,0,0.9-0.1,1.3-0.3s0.7-0.6,1-1l1.3,0.7c-0.4,0.6-0.9,1.1-1.6,1.5c-0.6,0.4-1.4,0.5-2.1,0.5c-0.6,0-1.2-0.1-1.8-0.3
		c-0.6-0.2-1.1-0.6-1.5-1c-0.4-0.4-0.8-1-1-1.5C121.7,21.2,121.6,20.6,121.6,20L121.6,20z"/>
	<path class="st0" d="M137,22.8h-4.2l-0.7,1.7h-1.7l3.5-9h2l3.5,9h-1.7L137,22.8L137,22.8z M133.2,21.4h3.4l-1.7-4.6
		C134.8,16.8,133.2,21.4,133.2,21.4z"/>
	<path class="st0" d="M142,17.9v6.6h-1.6v-9h1.6l4.6,6.4v-6.4h1.6v9h-1.5L142,17.9L142,17.9z"/>
	<path class="st0" d="M155.8,22.8h-4.2l-0.7,1.7h-1.7l3.5-9h2l3.5,9h-1.7L155.8,22.8z M152,21.4h3.4l-1.7-4.6
		C153.7,16.8,152,21.4,152,21.4z"/>
	<path class="st0" d="M159.3,15.5h3.3c0.6-0.1,1.2,0,1.8,0.2c0.6,0.2,1.1,0.5,1.6,1c0.4,0.4,0.8,0.9,1,1.5c0.2,0.6,0.3,1.2,0.3,1.8
		c0,0.6-0.1,1.2-0.3,1.8c-0.2,0.6-0.6,1.1-1,1.5c-0.4,0.4-1,0.8-1.6,1c-0.6,0.2-1.2,0.3-1.8,0.2h-3.3V15.5z M162.6,23.1
		c0.4,0,0.8,0,1.2-0.2s0.7-0.4,1-0.7s0.5-0.6,0.7-1c0.1-0.4,0.2-0.8,0.2-1.2c0-0.4,0-0.8-0.2-1.2s-0.4-0.7-0.7-1
		c-0.3-0.3-0.6-0.5-1-0.7s-0.8-0.2-1.2-0.2h-1.8v6.2L162.6,23.1L162.6,23.1z"/>
	<path class="st0" d="M174.2,22.8h-4.3l-0.7,1.7h-1.7l3.5-9h2l3.5,9h-1.7L174.2,22.8L174.2,22.8z M170.3,21.4h3.4l-1.7-4.6
		C172,16.8,170.3,21.4,170.3,21.4z"/>
</g>
<g>
	<path class="st1" d="M28.2,14.4c1.5-0.1,3-0.8,4-1.9c1-1.1,1.6-2.7,1.5-4.2c0-3.8-3.5-6.7-7.6-6.7H11.8l1,2.3v23.8l5.7-4v-6.9h3.4
		c5.6,0,8.4,1.2,8.4,4.5c0,2.9-2.3,4.1-5.8,4.1H19l-6.2,4.3h11.6c6.9,0,11.6-2.5,11.6-8.3C36,16.4,31.9,14.4,28.2,14.4L28.2,14.4z
		 M23,13h-4.5V6h6c1.6,0,3.7,0.4,3.7,3.2S25.2,13,23,13L23,13z"/>
	<path class="st1" d="M50.8,1.6H38.6l1,2.3v23.8l5.7-4V6h3.8c1.6,0,9.7,0.4,9.7,9.7c0,10.6-9.7,9.7-9.7,9.7h-3.3l-6.2,4.3h11.1
		c6.9,0,14-4.3,14-14.1C64.8,7,58.6,1.6,50.8,1.6L50.8,1.6z"/>
	<path class="st1" d="M82.4,1.4c-5.9,0-14.9,3.1-14.9,14.3S76.5,30,82.4,30s14.9-3.1,14.9-14.4S88.2,1.4,82.4,1.4L82.4,1.4z
		 M82.4,25.9c-3.5,0-9-2.2-9-10.2s5.5-10.2,9-10.2s9,2.2,9,10.2S85.9,25.9,82.4,25.9L82.4,25.9z"/>
	<path class="st0" d="M0.1,1.6v35l5.5-3.9V1.6H0.1z"/>
	<path class="st0" d="M6.6,34.1l-6.6,4.6H97v-4.6L6.6,34.1L6.6,34.1z"/>
</g>
</svg>
